<svg id="livetype" xmlns="http://www.w3.org/2000/svg" xmlns:xlink="http://www.w3.org/1999/xlink" viewBox="0 0 119.66 40"><defs><style>.cls-1{fill:#b7b7b7;}.cls-2,.cls-9{fill:#fff;}.cls-3{fill:url(#linear-gradient);}.cls-4{fill:url(#linear-gradient-2);}.cls-5{fill:url(#linear-gradient-3);}.cls-6{fill:url(#linear-gradient-4);}.cls-7,.cls-8{fill:#020101;}.cls-7{opacity:0.2;}.cls-7,.cls-8,.cls-9{isolation:isolate;}.cls-8{opacity:0.12;}.cls-9{opacity:0.25;}</style><linearGradient id="linear-gradient" x1="20.67" y1="-243.63" x2="6.21" y2="-258.1" gradientTransform="matrix(1, 0, 0, -1, 0, -233.83)" gradientUnits="userSpaceOnUse"><stop offset="0" stop-color="#4699d0"/><stop offset="0.01" stop-color="#459ad1"/><stop offset="0.26" stop-color="#1abaeb"/><stop offset="0.51" stop-color="#4ec3ed"/><stop offset="0.76" stop-color="#6ac8e7"/><stop offset="1" stop-color="#72cae5"/></linearGradient><linearGradient id="linear-gradient-2" x1="31.05" y1="-253.37" x2="10.19" y2="-253.37" gradientTransform="matrix(1, 0, 0, -1, 0, -233.83)" gradientUnits="userSpaceOnUse"><stop offset="0" stop-color="#ffe103"/><stop offset="0.41" stop-color="#fdbd00"/><stop offset="0.78" stop-color="#f8a500"/><stop offset="1" stop-color="#f69b00"/></linearGradient><linearGradient id="linear-gradient-3" x1="23.28" y1="-255.35" x2="3.66" y2="-274.97" gradientTransform="matrix(1, 0, 0, -1, 0, -233.83)" gradientUnits="userSpaceOnUse"><stop offset="0" stop-color="#e93a3d"/><stop offset="1" stop-color="#c41463"/></linearGradient><linearGradient id="linear-gradient-4" x1="8.17" y1="-236.28" x2="16.93" y2="-245.04" gradientTransform="matrix(1, 0, 0, -1, 0, -233.83)" gradientUnits="userSpaceOnUse"><stop offset="0" stop-color="#33a071"/><stop offset="0.07" stop-color="#30a772"/><stop offset="0.48" stop-color="#54b867"/><stop offset="0.8" stop-color="#6bbe66"/><stop offset="1" stop-color="#72c066"/></linearGradient></defs><title>Android_Germany</title><path class="cls-1" d="M110.13-.06H7.52a13.51,13.51,0,0,0-2,.18,6.74,6.74,0,0,0-1.9.63A6.07,6.07,0,0,0,2,1.94,6.07,6.07,0,0,0,.82,3.56a6.74,6.74,0,0,0-.63,1.9,12.18,12.18,0,0,0-.17,2c0,.31,0,.62,0,.92V31.5c0,.31,0,.61,0,.92a12.18,12.18,0,0,0,.17,2,6.8,6.8,0,0,0,.63,1.91A6.19,6.19,0,0,0,2,37.94a6.3,6.3,0,0,0,1.62,1.18,6.74,6.74,0,0,0,1.9.63,13.51,13.51,0,0,0,2,.18H112.14a13.39,13.39,0,0,0,2-.18,6.91,6.91,0,0,0,1.91-.63,6.47,6.47,0,0,0,1.62-1.18,6.68,6.68,0,0,0,1.18-1.61,7.12,7.12,0,0,0,.62-1.91,13.39,13.39,0,0,0,.18-2c0-.31,0-.61,0-.92V8.38c0-.3,0-.61,0-.92a13.39,13.39,0,0,0-.18-2,7.05,7.05,0,0,0-.62-1.9,6.54,6.54,0,0,0-1.18-1.62A6.24,6.24,0,0,0,116.05.76a6.91,6.91,0,0,0-1.91-.63,13.39,13.39,0,0,0-2-.18h-2Z"/><path d="M8.44,39.06h-.9a11.52,11.52,0,0,1-1.87-.16A5.89,5.89,0,0,1,4,38.34a5.16,5.16,0,0,1-1.39-1,5.19,5.19,0,0,1-1-1.4,5.89,5.89,0,0,1-.55-1.66A12.1,12.1,0,0,1,.89,32.4c0-.21,0-.92,0-.92V8.38s0-.69,0-.89a11.9,11.9,0,0,1,.16-1.87A5.86,5.86,0,0,1,1.6,4a5.16,5.16,0,0,1,1-1.39,5.81,5.81,0,0,1,1.4-1A5.77,5.77,0,0,1,5.67,1,12.1,12.1,0,0,1,7.54.83l.91,0H111.21l.92,0A12.08,12.08,0,0,1,114,1a5.65,5.65,0,0,1,1.67.55A5.49,5.49,0,0,1,118.07,4a5.92,5.92,0,0,1,.54,1.65,13.54,13.54,0,0,1,.17,1.88v.89c0,.38,0,.73,0,1.09V30.4c0,.37,0,.72,0,1.08v.93a13.26,13.26,0,0,1-.17,1.85,5.85,5.85,0,0,1-.54,1.67,5.42,5.42,0,0,1-1,1.39,5.19,5.19,0,0,1-1.4,1,5.89,5.89,0,0,1-1.66.55,11.52,11.52,0,0,1-1.87.16H8.44Z"/><path class="cls-2" d="M59.76,21a3.67,3.67,0,1,0,3.68,3.67A3.62,3.62,0,0,0,59.76,21Zm0,5.89a2.23,2.23,0,1,1,2.07-2.22A2.12,2.12,0,0,1,59.76,26.93Zm-8-5.89a3.67,3.67,0,1,0,3.68,3.67A3.62,3.62,0,0,0,51.73,21Zm0,5.89a2.23,2.23,0,1,1,2.07-2.22A2.12,2.12,0,0,1,51.73,26.93Zm-9.55-4.76v1.55H45.9a3.19,3.19,0,0,1-.85,2,3.81,3.81,0,0,1-2.87,1.14,4.14,4.14,0,0,1,0-8.28A4,4,0,0,1,45,19.65l1.1-1.09A5.42,5.42,0,0,0,42.18,17a5.7,5.7,0,1,0,0,11.39,5.22,5.22,0,0,0,4-1.6,5.13,5.13,0,0,0,1.35-3.64,4.71,4.71,0,0,0-.09-1Zm39.06,1.21A3.42,3.42,0,0,0,78.1,21a3.49,3.49,0,0,0-3.46,3.67,3.59,3.59,0,0,0,3.64,3.67,3.66,3.66,0,0,0,3.06-1.63l-1.25-.83a2.1,2.1,0,0,1-1.81,1,1.87,1.87,0,0,1-1.78-1.11l4.91-2Zm-5,1.22a2,2,0,0,1,1.92-2.14,1.42,1.42,0,0,1,1.36.78Zm-4,3.55h1.61V17.38H72.25Zm-2.64-6.29h0A2.55,2.55,0,0,0,67.63,21a3.67,3.67,0,0,0,0,7.34,2.49,2.49,0,0,0,1.93-.84h0v.53c0,1.4-.75,2.15-2,2.15a2,2,0,0,1-1.85-1.3l-1.4.58a3.49,3.49,0,0,0,3.25,2.17c1.88,0,3.48-1.11,3.48-3.82V21.27H69.61Zm-1.84,5.07a2.23,2.23,0,0,1,0-4.44,2.07,2.07,0,0,1,2,2.23A2.05,2.05,0,0,1,67.77,26.93Zm21-9.55H84.93V28.15h1.61V24.07h2.25a3.35,3.35,0,1,0,0-6.69Zm0,5.19H86.54V18.88h2.29a1.85,1.85,0,1,1,0,3.69ZM98.77,21a3,3,0,0,0-2.87,1.65l1.43.6a1.51,1.51,0,0,1,1.47-.79,1.55,1.55,0,0,1,1.69,1.39V24a3.52,3.52,0,0,0-1.68-.42c-1.54,0-3.1.85-3.1,2.43a2.49,2.49,0,0,0,2.67,2.37,2.28,2.28,0,0,0,2.05-1.05h.06v.83H102V24A3,3,0,0,0,98.77,21Zm-.19,5.91c-.53,0-1.27-.26-1.27-.91,0-.84.92-1.16,1.71-1.16a2.83,2.83,0,0,1,1.47.37A2,2,0,0,1,98.58,26.93Zm9.12-5.67-1.84,4.67h-.06l-1.91-4.67h-1.74L105,27.79l-1.63,3.63h1.67l4.43-10.16ZM93.21,28.15h1.61V17.38H93.21Z"/><path class="cls-3" d="M10.88,8.79a1.74,1.74,0,0,0-.4,1.21V29.07a1.74,1.74,0,0,0,.4,1.21l.06.06L21.62,19.66v-.25L10.94,8.73Z"/><path class="cls-4" d="M25.18,23.22l-3.56-3.56v-.25l3.56-3.56.08,0,4.22,2.4a1.31,1.31,0,0,1,0,2.49l-4.22,2.4Z"/><path class="cls-5" d="M25.26,23.18l-3.64-3.65L10.88,30.28a1.4,1.4,0,0,0,1.79,0l12.59-7.15"/><path class="cls-6" d="M25.26,15.89,12.67,8.74a1.4,1.4,0,0,0-1.79,0L21.62,19.53Z"/><path class="cls-7" d="M25.18,23.1,12.67,30.21a1.45,1.45,0,0,1-1.73,0h0l-.06.06h0l.06.06h0a1.44,1.44,0,0,0,1.73,0l12.59-7.15Z"/><path class="cls-8" d="M10.88,30.15a1.71,1.71,0,0,1-.4-1.21v.13a1.74,1.74,0,0,0,.4,1.21l.06-.06Z"/><path class="cls-8" d="M29.48,20.65l-4.3,2.45.08.08,4.22-2.4a1.51,1.51,0,0,0,.9-1.25h0A1.59,1.59,0,0,1,29.48,20.65Z"/><path class="cls-9" d="M12.67,8.86l16.81,9.56a1.59,1.59,0,0,1,.9,1.11h0a1.51,1.51,0,0,0-.9-1.24L12.67,8.74c-1.21-.69-2.19-.12-2.19,1.26v.13C10.48,8.75,11.46,8.18,12.67,8.86Z"/><path class="cls-2" d="M38.26,13.71a1.68,1.68,0,0,1-1.68-1.24l.65-.27a1,1,0,0,0,1,.85.89.89,0,0,0,.68-.29A1.16,1.16,0,0,0,39.2,12V8.21h.69v3.72a1.89,1.89,0,0,1-.44,1.31A1.54,1.54,0,0,1,38.26,13.71Z"/><path class="cls-2" d="M43.87,8.21v.67H41.42v1.7h2.21v.65H41.42v1.7h2.45v.66H40.73V8.21Z"/><path class="cls-2" d="M46.48,8.88v4.71h-.69V8.88h-1.5V8.21H48v.67Z"/><path class="cls-2" d="M52,13.59H48.26v-.72l2.86-4H48.38V8.21h3.54v.72l-2.86,4H52Z"/><path class="cls-2" d="M54.48,8.88v4.71h-.69V8.88h-1.5V8.21H56v.67Z"/><path class="cls-2" d="M58.06,13.59V8.21H60a1.54,1.54,0,0,1,1.1.43,1.32,1.32,0,0,1,.46,1,1.14,1.14,0,0,1-.73,1.12v0a1.28,1.28,0,0,1,.66.47,1.22,1.22,0,0,1,.25.76,1.43,1.43,0,0,1-.48,1.1,1.63,1.63,0,0,1-1.15.43Zm.69-4.71v1.64H60a.85.85,0,0,0,.87-.83A.82.82,0,0,0,60,8.88Zm0,2.29v1.76h1.39a.87.87,0,0,0,.89-.88.87.87,0,0,0-.26-.62.89.89,0,0,0-.66-.26Z"/><path class="cls-2" d="M65.51,8.21v.67H63.06v1.7h2.21v.65H63.06v1.7h2.45v.66H62.37V8.21Z"/><path class="cls-2" d="M67,13.59h-.69V8.21H67Z"/></svg>